<svg width="10" height="32" viewBox="0 0 10 32" fill="none" xmlns="http://www.w3.org/2000/svg">
<path d="M6.41748 20.3729C6.41748 19.7051 6.38066 19.093 6.30639 18.5369C6.23212 17.9805 6.06533 17.4862 5.8057 17.0531C5.54606 16.6206 5.16286 16.2556 4.65576 15.9589C4.1493 15.6621 3.47509 15.4396 2.63409 15.2911V15.2168C3.47509 15.0686 4.1493 14.8461 4.65576 14.549C5.16286 14.2522 5.54606 13.8812 5.8057 13.4362C6.06533 12.9912 6.23212 12.4902 6.30639 11.9338C6.38066 11.3774 6.41748 10.7653 6.41748 10.0978L5.7788 4.26583C5.7788 3.25196 6.00802 2.42376 6.46518 1.78029C6.9233 1.13745 7.85618 0.643156 9.26574 0.296768V0C7.98007 0 6.92298 0.0992427 6.09414 0.296768C5.26594 0.494933 4.6103 0.810268 4.12817 1.24277C3.64605 1.6756 3.31182 2.24416 3.12646 2.94911C2.9411 3.65405 2.84826 4.52579 2.84826 5.56431L3.48694 11.0998C3.48694 11.6933 3.44404 12.219 3.35728 12.6762C3.27085 13.1343 3.10405 13.5236 2.85659 13.8447C2.60944 14.1664 2.25729 14.4446 1.79917 14.6793C1.3417 14.9149 0.742079 15.106 0 15.2542C0.742079 15.4025 1.3417 15.5881 1.79917 15.8106C2.25729 16.0331 2.60944 16.3056 2.85659 16.6267C3.10405 16.9484 3.27085 17.3377 3.35728 17.7952C3.44436 18.253 3.48694 18.7783 3.48694 19.3715L2.84826 26.0032C2.84826 27.042 2.9411 27.9134 3.12646 28.6184C3.31182 29.3233 3.64573 29.8916 4.12817 30.3247C4.6103 30.7572 5.26594 31.0726 6.09414 31.2707C6.92298 31.4682 7.98007 31.5675 9.26574 31.5675V31.2707C7.88115 30.9743 6.95403 30.4976 6.48375 29.8426C6.01443 29.1873 5.7788 28.3405 5.7788 27.3017L6.41748 20.3736V20.3729Z" fill="black"/>
</svg>
