<svg width="648" height="842" viewBox="0 0 648 842" fill="none" xmlns="http://www.w3.org/2000/svg">
<path d="M75.6026 540.61C75.6026 522.978 76.5799 506.807 78.5513 492.115C80.5227 477.414 84.9499 464.362 91.8414 452.924C98.733 441.504 108.905 431.867 122.365 424.024C135.808 416.189 153.704 410.309 176.027 406.392V404.429C153.704 400.511 135.808 394.631 122.365 386.796C108.905 378.962 98.733 369.164 91.8414 357.412C84.9499 345.66 80.5227 332.429 78.5513 317.737C76.5799 303.045 75.6026 286.874 75.6026 269.241L92.5552 115.215C92.5552 88.4391 86.471 66.5664 74.3365 49.5713C62.185 32.6102 37.4147 19.558 0 10.4061V2.56291C34.1261 2.56291 62.185 5.18015 84.1852 10.3976C106.168 15.6321 123.571 23.9597 136.369 35.3804C149.166 46.8096 158.037 61.8248 162.957 80.4429C167.877 99.0525 170.342 122.081 170.342 149.511L153.389 295.703C153.389 311.372 154.528 325.257 156.831 337.341C159.125 349.433 163.552 359.723 170.121 368.204C176.681 376.701 186.028 384.052 198.188 390.246C210.331 396.467 226.247 401.514 245.944 405.432C226.247 409.349 210.331 414.252 198.188 420.132C186.028 426.013 176.681 433.201 170.121 441.682C163.552 450.18 159.125 460.462 156.831 472.545C154.519 484.637 153.389 498.505 153.389 514.183L170.342 689.317C170.342 716.748 167.877 739.767 162.957 758.385C158.037 777.004 149.174 792.01 136.369 803.448C123.571 814.869 106.168 823.196 84.1852 828.431C62.185 833.648 34.1261 836.266 0 836.266V828.431C36.7519 820.596 61.3608 808.011 73.8437 790.71C86.301 773.401 92.5552 751.035 92.5552 723.605L75.6026 540.636V540.61Z" fill="black"/>
<path d="M2.94144 830.487C13.3934 829.697 32.309 824.7 42.7864 823.884C53.2384 823.086 59.1442 811.35 67.5993 808.113C76.0543 804.909 75.3065 794.16 80.9404 787.302C86.5658 780.47 94.4855 771.913 94.4855 759.83L145.573 425.783L182.605 405.253L146.244 380.593L102.431 88.6937C102.431 73.4067 86.9822 59.4112 82.1471 52.1628C77.312 44.9144 78.935 36.7653 70.8963 33.9356C62.8406 31.1229 68.9419 23.8405 58.065 23.4241C47.1967 23.0332 34.6968 16.5496 22.6218 14.1363L0.00129353 2.62213C43.4917 1.83186 87.3815 1.42398 131.688 1.42398C175.994 1.42398 221.09 1.02459 267.003 0.217324C308.08 -0.581445 347.95 0.82065 386.614 4.4406C425.269 8.06905 463.117 19.1414 500.175 37.666C529.177 52.1628 551.917 74.3244 568.436 104.108C584.938 133.918 593.206 164.925 593.206 197.139C593.206 247.079 580.112 287.749 553.939 319.156C527.758 350.571 491.304 372.733 444.61 385.606V388.02C473.603 391.249 500.575 399.101 525.557 411.583C550.515 424.083 572.073 439.787 590.198 458.702C608.315 477.635 622.404 499.779 632.482 525.145C642.543 550.518 647.582 578.118 647.582 607.902C647.582 649.795 638.711 685.434 621.002 714.827C603.284 744.245 573.467 771.013 531.599 795.163C514.689 804.833 495.756 812.684 474.819 818.726C453.864 824.776 432.526 829.408 410.781 832.62C389.036 835.849 367.291 838.058 345.545 839.273C323.8 840.471 303.262 841.083 283.93 841.083C235.613 841.083 187.678 840.276 140.16 838.67C92.6245 837.047 45.9305 836.248 0.0182886 836.248L2.95844 830.487H2.94144ZM211.429 394.07H268.209C295.58 394.07 321.557 390.645 346.14 383.796C370.698 376.964 392.231 366.088 410.773 351.174C429.297 336.278 443.998 316.955 454.866 293.187C465.743 269.437 471.182 241.046 471.182 208.008C471.182 170.16 462.913 136.331 446.42 106.53C429.901 76.7377 403.524 54.9925 367.282 41.286C346.327 33.2473 321.166 28.5991 291.773 27.3925C262.363 26.1858 235.596 25.5825 211.437 25.5825L211.429 394.07ZM211.429 742.01C211.429 773.426 220.487 793.565 238.612 802.419C256.738 811.299 280.684 815.718 310.502 815.718C378.159 815.718 429.297 799.012 463.933 765.574C498.552 732.162 515.879 681.61 515.879 613.952C515.879 569.672 509.03 534.628 495.34 508.846C481.642 483.082 463.117 463.537 439.766 450.256C416.398 436.966 389.427 428.511 358.819 424.882C328.202 421.262 295.996 419.444 262.168 419.444H211.429V742.01Z" fill="black"/>
</svg>
